<?xml version="1.0" encoding="UTF-8" standalone="no"?>
<!-- Created with Inkscape (http://www.inkscape.org/) -->

<svg
   width="135.16614mm"
   height="155.68674mm"
   viewBox="0 0 135.16614 155.68674"
   version="1.1"
   id="svg1"
   xml:space="preserve"
   inkscape:version="1.4.4 (dcaf3e7d9e, 2026-05-05)"
   sodipodi:docname="logo.svg"
   xmlns:inkscape="http://www.inkscape.org/namespaces/inkscape"
   xmlns:sodipodi="http://sodipodi.sourceforge.net/DTD/sodipodi-0.dtd"
   xmlns="http://www.w3.org/2000/svg"
   xmlns:svg="http://www.w3.org/2000/svg"><sodipodi:namedview
     id="namedview1"
     pagecolor="#232323"
     bordercolor="#000000"
     borderopacity="0.25"
     inkscape:showpageshadow="2"
     inkscape:pageopacity="0.0"
     inkscape:pagecheckerboard="0"
     inkscape:deskcolor="#d1d1d1"
     inkscape:document-units="mm"
     inkscape:zoom="0.66457632"
     inkscape:cx="112.85386"
     inkscape:cy="412.29275"
     inkscape:window-width="1920"
     inkscape:window-height="955"
     inkscape:window-x="1920"
     inkscape:window-y="35"
     inkscape:window-maximized="1"
     inkscape:current-layer="layer1"
     inkscape:clip-to-page="false" /><defs
     id="defs1" /><g
     inkscape:label="Layer 1"
     inkscape:groupmode="layer"
     id="layer1"
     transform="translate(-41.101293,-39.433511)"><path
       style="fill:#e63946;fill-opacity:1"
       d="m 54.009201,141.69063 c -2.649947,-1.7858 -3.041949,-5.59594 -0.762045,-7.40685 l 0.743423,-0.5905 -3.960949,-16.02174 -3.960949,-16.02174 -1.147225,-0.30683 c -3.135687,-0.83867 -4.552908,-4.456944 -2.766735,-7.063693 0.83485,-1.218384 1.958587,-1.828739 3.662689,-1.989384 l 1.444779,-0.136198 1.81748,-3.307291 c 1.736058,-3.159128 6.51116,-11.829089 11.906315,-21.617818 l 2.508986,-4.552193 -0.651422,-1.26864 c -2.311092,-4.500835 2.952299,-9.020182 6.85375,-5.884891 l 1.081187,0.868866 2.40749,-0.81165 c 1.32412,-0.446407 5.681709,-1.970429 9.683532,-3.386714 4.001823,-1.416286 10.431199,-3.675136 14.287501,-5.019668 l 7.011462,-2.444602 0.14678,-1.026241 c 0.18012,-1.259327 0.51208,-1.880292 1.48409,-2.776177 0.81662,-0.752655 2.16186,-1.292772 3.21986,-1.292772 1.90321,0 4.12087,2.004191 4.44659,4.018563 0.0883,0.545886 0.34805,1.049655 0.58961,1.143353 0.2375,0.09213 5.31338,1.940648 11.27973,4.10783 5.96636,2.167182 13.46176,4.948619 16.65646,6.180972 l 5.80853,2.240641 0.97376,-0.879732 c 1.78605,-1.61359 4.45631,-1.482146 6.19176,0.304792 1.61213,1.659953 1.8034,3.871342 0.50087,5.79073 -0.34668,0.510868 -0.63033,0.978632 -0.63033,1.039475 0,0.145936 8.29749,15.525269 11.36099,21.057512 1.32201,2.38736 2.78919,5.084356 3.26039,5.993322 0.84851,1.636786 0.86765,1.652677 1.99176,1.653646 2.5721,0.0022 4.81811,2.177695 4.81811,4.666804 0,2.20494 -2.09971,4.594588 -4.03712,4.594588 -0.55704,0 -0.71714,0.15894 -0.86624,0.8599 -0.1006,0.47294 -1.71574,7.17021 -3.58922,14.88281 l -3.40632,14.02292 0.62974,0.52916 c 2.52056,2.11803 2.25349,6.16405 -0.5102,7.72932 -1.38557,0.78475 -3.36262,0.80801 -4.59922,0.0541 -1.23919,-0.75546 -1.81082,-1.4936 -2.23167,-2.88174 l -0.35887,-1.18371 -5.90476,-1.27531 c -3.24761,-0.70142 -6.03886,-1.22384 -6.20276,-1.16095 -0.16391,0.0629 -1.66239,2.14672 -3.32996,4.63071 l -3.03195,4.51634 -1.25288,0.0111 -1.25288,0.0111 0.45913,-0.73564 c 0.25252,-0.4046 1.69228,-2.53903 3.19947,-4.74319 1.50718,-2.20416 2.72202,-4.10554 2.69963,-4.2253 -0.0224,-0.11976 -1.00255,-0.42847 -2.17815,-0.68603 -2.04482,-0.44797 -2.15283,-0.44797 -2.49214,0 -0.19507,0.25756 -1.92301,2.7007 -3.83986,5.42922 l -3.48519,4.96094 h -1.15409 c -0.63474,0 -1.15408,-0.0956 -1.15408,-0.21246 0,-0.11686 0.34903,-0.68707 0.77562,-1.26715 1.79206,-2.43681 6.86601,-9.75238 6.80582,-9.81256 -0.036,-0.036 -3.57218,-0.83935 -7.85829,-1.78534 -4.28612,-0.94599 -10.20402,-2.26236 -13.15089,-2.92526 l -5.35795,-1.20529 -10.822676,3.07781 c -10.081367,2.86699 -10.830902,3.12084 -10.942785,3.70612 -0.136768,0.71545 0.143573,0.99918 6.619087,6.69897 2.218782,1.95299 4.034148,3.59009 4.034148,3.63802 0,0.0479 -0.654088,0.0871 -1.453529,0.0871 -1.429571,0 -1.489096,-0.0316 -3.611356,-1.91823 -6.62524,-5.8896 -7.090044,-6.23564 -8.179486,-6.08951 -1.332631,0.17874 -2.144151,-0.0467 -2.919919,-0.81101 l -0.636752,-0.62738 -2.60187,0.60011 c -1.431028,0.33006 -2.658688,0.65692 -2.728131,0.72637 -0.06944,0.0694 1.079525,1.895 2.553264,4.05681 l 2.679526,3.93054 -1.127503,0.0839 c -1.316855,0.098 -1.104865,0.31555 -4.267442,-4.38015 -1.584783,-2.35304 -2.296161,-3.20132 -2.603027,-3.10396 -0.419342,0.13304 -12.084773,2.77002 -12.253995,2.77002 -0.04862,0 -0.164057,0.47314 -0.256529,1.05143 -0.185797,1.16191 -1.385484,2.71441 -2.571471,3.32771 -1.170129,0.60509 -3.433934,0.49512 -4.492503,-0.21825 z m 18.404836,-8.96257 c 0.09403,-0.0943 -0.521346,-1.17162 -1.367509,-2.39403 -0.846164,-1.22241 -2.423616,-3.49571 -3.50545,-5.05177 l -1.966971,-2.82921 -1.428251,2.7097 c -0.785539,1.49033 -2.134811,4.11081 -2.998383,5.82329 l -1.570131,3.11359 0.54777,0.7409 0.547771,0.7409 5.785092,-1.34095 c 3.181801,-0.73752 5.862029,-1.41811 5.956062,-1.51242 z m 86.230183,-0.15432 c 0.84699,-0.92423 0.88164,-1.03192 0.54289,-1.687 -0.19903,-0.38487 -1.27133,-2.94693 -2.38291,-5.69348 -1.11157,-2.74655 -2.10734,-5.08601 -2.21282,-5.19879 -0.1525,-0.16306 -3.40467,4.21476 -7.71959,10.39152 l -0.46207,0.66145 5.47,1.22588 c 3.0085,0.67423 5.55769,1.23978 5.66487,1.25677 0.10719,0.017 0.60202,-0.41337 1.09963,-0.95635 z m -100.223662,-17.4013 0.164524,-1.5875 -5.12185,-6.24783 c -2.817018,-3.43632 -5.154604,-6.16579 -5.194636,-6.0655 -0.07583,0.18996 7.231988,30.0055 7.525055,30.70188 0.150244,0.357 2.221804,-12.89218 2.626907,-16.80105 z M 78.18913,131.5577 c 1.624872,-0.37421 2.98999,-0.71605 3.033594,-0.75965 0.0436,-0.0436 -2.671699,-1.6368 -6.034007,-3.54043 -3.362307,-1.90364 -6.075478,-3.37606 -6.029269,-3.27206 0.285496,0.64255 5.680308,8.23277 5.857818,8.24164 0.119652,0.006 1.546991,-0.2953 3.171864,-0.6695 z m -15.662792,-7.86025 1.569654,-3.11665 -1.593458,-2.09326 c -0.876402,-1.15129 -1.693312,-2.15496 -1.815355,-2.23039 -0.122043,-0.0754 -0.670484,3.04294 -1.218757,6.9297 -0.548273,3.88677 -1.052885,7.42403 -1.12136,7.86059 -0.134745,0.85908 1.437464,-1.90593 4.179276,-7.34999 z m 99.963092,6.22552 c 0.48555,-1.81573 5.5843,-22.6425 6.25865,-25.56456 0.36511,-1.5821 0.6126,-2.92778 0.54997,-2.99041 -0.12845,-0.12845 -12.82811,15.62497 -13.03885,16.17417 -0.10383,0.27057 4.51999,12.20778 5.1031,13.17455 0.30848,0.51144 0.88707,0.10399 1.12713,-0.79375 z m -15.44525,-3.37344 c 1.43103,-2.03729 3.47199,-4.85928 4.53547,-6.27109 1.06349,-1.41181 1.92757,-2.72149 1.92019,-2.91042 -0.0299,-0.76681 -2.06986,-5.37582 -2.40966,-5.44442 -0.21339,-0.0431 -0.79312,0.67338 -1.39159,1.7198 -1.2166,2.12723 -7.15861,11.65066 -8.78652,14.08242 -0.62794,0.93801 -1.09297,1.7542 -1.03341,1.81376 0.22912,0.22912 4.25027,1.02896 4.40278,0.87575 0.0885,-0.0889 1.33172,-1.82851 2.76274,-3.8658 z m -51.077797,0.24031 c 4.365627,-1.25881 8.391427,-2.40977 8.946227,-2.55768 0.55479,-0.14791 0.91198,-0.35753 0.79375,-0.46582 -0.11824,-0.10828 -1.82232,-0.79626 -3.78685,-1.52883 -1.964534,-0.73258 -6.607971,-2.46439 -10.318752,-3.84847 -3.710782,-1.38408 -7.978194,-2.99673 -9.483138,-3.58367 -2.185679,-0.85243 -2.700086,-0.9761 -2.556472,-0.61463 0.09888,0.2489 0.871161,2.41707 1.716169,4.81816 3.16342,8.98887 3.166404,8.99584 3.851417,8.99584 0.341925,0 0.955743,0.29279 1.36404,0.65064 0.408297,0.35785 0.920952,0.59947 1.139233,0.53693 0.218282,-0.0626 3.968751,-1.14366 8.334376,-2.40247 z m 43.337797,-0.50631 c 1.76368,-2.59364 7.34137,-11.46588 8.7808,-13.96731 0.40154,-0.6978 0.66739,-1.3314 0.59079,-1.408 -0.0766,-0.0766 -2.85927,0.93006 -6.18371,2.23703 -7.22509,2.84047 -12.65089,4.83975 -22.05172,8.12554 -5.28257,1.84638 -6.84835,2.48948 -6.35,2.60808 1.78628,0.4251 7.79063,1.79681 12.17083,2.78045 2.69214,0.60456 6.14495,1.38079 7.67292,1.72496 1.52797,0.34417 2.95672,0.60729 3.175,0.58471 0.21828,-0.0226 1.20607,-1.23103 2.19509,-2.68546 z m -56.963839,2.28749 c 0,-0.21747 -2.972347,-8.70798 -4.76582,-13.61356 l -0.852447,-2.33164 -2.254951,-1.04179 c -1.240224,-0.57299 -2.387129,-1.039 -2.54868,-1.03558 -0.373059,0.008 -5.334369,9.60055 -5.022916,9.71178 0.1272,0.0454 3.565022,1.97274 7.639605,4.28293 4.074584,2.31019 7.497631,4.21271 7.606771,4.22783 0.109141,0.0151 0.198438,-0.0749 0.198438,-0.19997 z m 27.960899,-6.17569 0.87868,-0.31773 v -3.26468 c 0,-3.55476 -0.28974,-4.55865 -1.69404,-5.86941 l -0.68721,-0.64143 -0.6872,0.64143 c -1.37781,1.28603 -1.69405,2.33562 -1.69405,5.62254 v 3.01782 l 1.38907,0.54744 c 1.6992,0.66967 1.44683,0.64296 2.49475,0.26402 z m -42.729342,-8.43791 2.297183,-4.51331 -3.950829,-1.92765 c -2.172956,-1.06021 -3.950828,-1.89424 -3.950828,-1.85339 0,0.0408 -0.244033,1.74405 -0.542295,3.78491 l -0.542295,3.71065 2.063649,2.64157 c 1.135007,1.45287 2.12318,2.64809 2.195941,2.65605 0.07276,0.008 1.166024,-2.01652 2.429474,-4.49883 z m 55.514272,-2.76687 v -6.96289 l 1.15173,-0.94375 c 0.63346,-0.51907 1.22877,-0.94376 1.32292,-0.94376 0.0941,0 0.17119,3.33375 0.17119,7.40834 0,4.91279 0.0919,7.40833 0.27289,7.40833 0.15008,0 0.33123,-0.15205 0.40254,-0.33789 0.0713,-0.18583 0.15687,-5.75201 0.19014,-12.36927 l 0.0605,-12.031381 0.79375,-0.132292 c 0.635,-0.105833 0.79375,-0.264583 0.79375,-0.79375 v -0.661458 h 3.30729 3.30729 l 0.0822,0.711576 c 0.0635,0.549933 0.24381,0.730243 0.79375,0.79375 l 0.71157,0.08217 0.0692,10.359335 c 0.0681,10.19218 0.0777,10.35711 0.59531,10.22174 0.50767,-0.13276 0.52612,-0.37307 0.52612,-6.8536 v -6.716017 h 0.79375 c 0.70555,0 0.79375,-0.08819 0.79375,-0.79375 v -0.79375 h 1.71979 c 1.70181,0 1.8569,0.08846 1.73954,0.992187 -0.0236,0.181901 0.0813,0.330729 0.23324,0.330729 0.1519,0 0.27618,-0.297656 0.27618,-0.661458 0,-0.411574 0.14993,-0.661458 0.39687,-0.661458 0.26459,0 0.39688,0.264583 0.39688,0.79375 0,0.617361 0.11759,0.79375 0.52917,0.79375 0.51107,0 0.52916,0.176389 0.52916,5.159377 0,2.83766 0.0489,5.15938 0.10875,5.15938 0.58645,0 3.06625,-1.21721 3.06625,-1.50507 0,-0.6857 0.74099,-1.81686 1.43264,-2.18702 l 0.68403,-0.36608 v -8.521175 -8.521168 l -8.22764,-3.653629 c -5.63271,-2.501306 -8.33304,-3.575692 -8.56185,-3.406517 -1.65822,1.226079 -1.87662,1.305444 -3.59239,1.305444 -1.51149,0 -1.88545,-0.101771 -2.72389,-0.741282 -1.13598,-0.866454 -1.76507,-1.957604 -1.76507,-3.061518 0,-0.655445 -0.14316,-0.831298 -0.85989,-1.056217 -7.94364,-2.49282 -11.44435,-3.499409 -11.80146,-3.393376 -0.23954,0.07112 -3.11443,1.16578 -6.38865,2.432569 -3.27421,1.266789 -8.691558,3.349207 -12.038537,4.627596 -8.980259,3.430037 -8.334376,3.124468 -8.334376,3.943019 0,1.568143 -1.364598,3.344908 -2.933351,3.819349 -0.230895,0.06983 -1.757185,2.649691 -3.391756,5.733025 l -2.971947,5.60606 0.444154,0.93599 c 0.503573,1.0612 0.384455,2.51856 -0.264464,3.23561 -0.371605,0.41062 -0.310595,0.71779 0.671634,3.38152 0.685525,1.8591 1.241736,2.97649 1.521903,3.0574 0.242845,0.0701 0.649895,0.21329 0.904557,0.31813 0.429615,0.17687 0.46302,-0.11462 0.46302,-4.04016 0,-4.83101 -0.161272,-4.54634 2.579688,-4.55347 0.82864,-0.002 1.389062,-0.12062 1.389062,-0.29362 0,-0.74089 0.860535,-3.139539 1.078097,-3.005078 0.134651,0.08322 0.24482,1.453968 0.24482,3.046108 v 2.89481 h 1.719792 1.719792 l 0.0084,-3.10886 c 0.0073,-2.70937 0.0556,-3.046589 0.375655,-2.62428 0.201982,0.26651 0.506528,1.06518 0.676768,1.77482 l 0.309527,1.29026 1.894505,0.0773 1.894506,0.0773 0.07053,6.93834 c 0.06719,6.61019 0.09535,6.95163 0.595312,7.21921 0.514271,0.27523 0.524788,0.18565 0.524788,-4.46993 v -4.75079 l 0.79375,-0.17434 0.79375,-0.17433 0.0023,-7.18887 c 0.0013,-3.953889 0.07738,-7.81396 0.169146,-8.577945 0.178646,-1.487299 0.622305,-1.911715 0.622305,-0.595312 0,0.436562 0.0902,0.79375 0.200444,0.79375 0.296022,0 2.002806,-9.130197 1.853136,-9.913117 -0.0704,-0.368276 0.0303,-0.878093 0.22371,-1.132926 0.33485,-0.441119 0.35212,-0.441134 0.36013,-3.11e-4 0.005,0.254661 0.12848,0.463021 0.27524,0.463021 0.17897,0 0.17862,0.152446 -0.001,0.463021 -0.19506,0.337151 0.0101,1.829602 0.75468,5.490104 0.91047,4.475972 1.04506,4.91447 1.22771,3.999856 0.43063,-2.156456 0.77938,-0.119097 0.92039,5.376799 l 0.13874,5.40791 2.31511,-2.07747 c 2.26533,-2.032804 2.77225,-2.890986 1.90441,-3.224008 -0.35056,-0.134521 -0.33053,-0.232274 0.13674,-0.667606 0.50447,-0.469989 0.58104,-0.476398 0.97577,-0.08167 0.31967,0.319679 0.3521,0.50456 0.12784,0.728825 -0.61971,0.619712 -0.2383,1.225262 2.01461,3.198529 l 2.31511,2.02774 0.14041,-5.553414 c 0.0947,-3.746578 0.24213,-5.655118 0.45303,-5.86602 0.24043,-0.240427 0.35491,-0.04813 0.49577,0.832794 0.16479,1.030528 0.286,0.630158 1.20856,-3.99197 0.75824,-3.798877 0.95381,-5.258012 0.75063,-5.600396 -0.1816,-0.306027 -0.18429,-0.463021 -0.008,-0.463021 0.14676,0 0.26683,-0.202407 0.26683,-0.449792 0,-0.350691 0.0702,-0.379599 0.31859,-0.131204 0.17522,0.175223 0.28946,0.751034 0.25386,1.279579 -0.0711,1.056216 1.50643,9.3364 1.85554,9.739229 0.12064,0.139193 0.21784,-0.150064 0.21784,-0.648229 0,-0.719464 0.0662,-0.833439 0.33073,-0.569235 0.24682,0.246531 0.35178,2.434187 0.4137,8.622166 l 0.083,8.291823 0.77692,0.15538 0.77693,0.15539 v 5.14122 c 0,5.01095 0.0134,5.13771 0.52917,5.00284 0.51225,-0.13396 0.52916,-0.3609 0.52916,-7.10127 z m -21.96041,3.43533 c 0,-1.39201 -0.12854,-2.77111 -0.28564,-3.06466 -0.27226,-0.50871 -0.30945,-0.51217 -0.79375,-0.0739 -0.435548,0.39417 -0.508112,0.83184 -0.508112,3.06466 v 2.60483 h 0.793752 0.79375 z m 16.93333,0.0763 c 0,-1.85758 -0.1067,-2.607 -0.43863,-3.08091 -0.76263,-1.08881 -1.14887,-0.1003 -1.14887,2.94032 v 2.59526 h 0.79375 0.79375 z m 44.3145,-8.26096 c 2.34717,-2.91041 4.35457,-5.43669 4.4609,-5.61395 0.10632,-0.17726 -1.03176,0.4098 -2.52906,1.30458 -5.61482,3.35535 -9.33048,5.5 -9.52889,5.5 -0.11272,0 -0.20495,0.43243 -0.20495,0.96096 0,0.52852 -0.25006,1.36556 -0.55568,1.86007 l -0.55569,0.89912 0.84706,2.10135 0.84705,2.10135 1.47585,-1.91091 c 0.81171,-1.05099 3.39625,-4.29215 5.74341,-7.20257 z m -73.154082,5.2789 v -3.58465 l -0.855445,-0.35969 c -0.689974,-0.29011 -1.009842,-0.29678 -1.653646,-0.0345 l -0.798201,0.32519 -0.07439,2.91274 -0.07439,2.91274 1.661891,0.68082 c 0.91404,0.37444 1.691656,0.69233 1.728037,0.7064 0.03638,0.0141 0.06615,-1.58749 0.06615,-3.55905 z m -29.728499,-3.4917 c 0.593869,-3.9493 1.01979,-3.36734 -4.37521,-5.97812 -2.604227,-1.26025 -4.809924,-2.291367 -4.90155,-2.291367 -0.09163,0 0.461527,0.745977 1.229228,1.657727 0.767702,0.91174 2.757761,3.34988 4.422355,5.41808 1.664593,2.0682 3.082856,3.70404 3.151695,3.6352 0.06884,-0.0688 0.281906,-1.16752 0.473482,-2.44152 z m 70.209751,1.78468 c 0,-0.41157 -0.17639,-0.52917 -0.79375,-0.52917 -0.61736,0 -0.79375,0.1176 -0.79375,0.52917 0,0.41157 0.17639,0.52917 0.79375,0.52917 0.61736,0 0.79375,-0.1176 0.79375,-0.52917 z m 2.64583,0 c 0,-0.41157 -0.17639,-0.52917 -0.79375,-0.52917 -0.61736,0 -0.79375,0.1176 -0.79375,0.52917 0,0.41157 0.17639,0.52917 0.79375,0.52917 0.61736,0 0.79375,-0.1176 0.79375,-0.52917 z m 2.64584,0 c 0,-0.41157 -0.17639,-0.52917 -0.79375,-0.52917 -0.61737,0 -0.79375,0.1176 -0.79375,0.52917 0,0.41157 0.17638,0.52917 0.79375,0.52917 0.61736,0 0.79375,-0.1176 0.79375,-0.52917 z M 75.3545,108.22708 c -0.753305,-2.23826 -1.401783,-2.50203 -2.137908,-0.8696 -0.266228,0.59039 -0.435656,1.10376 -0.376505,1.14082 0.106976,0.067 2.973679,1.4679 3.066723,1.49862 0.02682,0.009 -0.221721,-0.78757 -0.55231,-1.76984 z m 34.97858,0.19112 c 1.26186,-1.1756 0.92458,-3.20569 -0.64129,-3.85995 -1.05797,-0.44205 -1.90925,-0.17807 -2.71045,0.84048 -0.74696,0.9496 -0.71151,1.75245 0.12106,2.74191 0.8427,1.00149 2.31762,1.1282 3.23068,0.27756 z m 19.31993,-0.55985 c -0.0593,-0.39775 -0.30187,-0.58993 -0.81215,-0.6434 -0.61518,-0.0645 -0.7276,0.0232 -0.7276,0.56716 0,0.54175 0.12832,0.64341 0.81215,0.64341 0.6802,0 0.79842,-0.0922 0.7276,-0.56717 z m 2.69358,-0.0762 c 0,-0.54399 -0.11242,-0.63163 -0.7276,-0.56716 -0.51028,0.0535 -0.75286,0.24565 -0.81215,0.6434 -0.0708,0.47502 0.0474,0.56717 0.7276,0.56717 0.68383,0 0.81215,-0.10166 0.81215,-0.64341 z m 2.64584,0 c 0,-0.52883 -0.11787,-0.63084 -0.66189,-0.57284 -0.82796,0.0883 -1.03394,0.28775 -0.83431,0.80796 0.0862,0.22456 0.45806,0.40829 0.82643,0.40829 0.53302,0 0.66977,-0.13137 0.66977,-0.64341 z M 71.5975,104.66872 c -1.065021,-2.05952 0.32126,-4.709867 2.463528,-4.709867 0.794404,0 0.929454,-0.132079 1.690839,-1.653645 0.455113,-0.909506 1.723377,-3.301837 2.818366,-5.316293 l 1.990887,-3.662647 -0.764035,-0.762478 -0.764036,-0.762478 -7.540625,2.28446 c -4.147344,1.256454 -7.55883,2.29526 -7.581079,2.308459 -0.02225,0.0132 -0.388548,2.510499 -0.813996,5.549557 l -0.773542,5.525562 4.253579,2.04911 4.253579,2.04911 0.568097,-1.092 c 0.509316,-0.97901 0.529848,-1.16597 0.198438,-1.80685 z m 58.10326,0.84638 c 0,-0.41157 -0.17639,-0.52916 -0.79375,-0.52916 -0.61736,0 -0.79375,0.11759 -0.79375,0.52916 0,0.41158 0.17639,0.52917 0.79375,0.52917 0.61736,0 0.79375,-0.11759 0.79375,-0.52917 z m 2.64583,0 c 0,-0.41157 -0.17639,-0.52916 -0.79375,-0.52916 -0.61736,0 -0.79375,0.11759 -0.79375,0.52916 0,0.41158 0.17639,0.52917 0.79375,0.52917 0.61736,0 0.79375,-0.11759 0.79375,-0.52917 z m 2.64584,0 c 0,-0.41157 -0.17639,-0.52916 -0.79375,-0.52916 -0.61737,0 -0.79375,0.11759 -0.79375,0.52916 0,0.41158 0.17638,0.52917 0.79375,0.52917 0.61736,0 0.79375,-0.11759 0.79375,-0.52917 z m 23.26574,-2.20197 c 2.55629,-1.50213 5.56907,-3.2583 6.69507,-3.902604 2.01527,-1.153146 2.04732,-1.188013 2.05016,-2.229798 l 0.003,-1.058333 -7.20953,-3.231479 -7.20953,-3.231479 -0.0701,7.975922 c -0.0707,8.044521 -0.0359,8.390391 0.84625,8.404861 0.13585,0.002 2.3385,-1.22496 4.8948,-2.72709 z m -28.55741,0.0853 c 0,-0.41158 -0.17639,-0.52917 -0.79375,-0.52917 -0.61736,0 -0.79375,0.11759 -0.79375,0.52917 0,0.41157 0.17639,0.52916 0.79375,0.52916 0.61736,0 0.79375,-0.11759 0.79375,-0.52916 z m 2.64583,0 c 0,-0.41158 -0.17639,-0.52917 -0.79375,-0.52917 -0.61736,0 -0.79375,0.11759 -0.79375,0.52917 0,0.41157 0.17639,0.52916 0.79375,0.52916 0.61736,0 0.79375,-0.11759 0.79375,-0.52916 z m 2.64584,-0.028 c 0,-0.37689 -0.19071,-0.50118 -0.76898,-0.50118 -0.60216,0 -0.74269,0.10045 -0.64776,0.46302 0.17401,0.66463 1.41674,0.6981 1.41674,0.0382 z M 60.64118,100.025 c 0.173753,-1.273308 0.465242,-3.362554 0.647754,-4.642771 0.300268,-2.106203 0.291691,-2.312073 -0.09015,-2.16378 -0.338474,0.131451 -6.81314,2.1187 -9.814697,3.012393 -0.437065,0.130134 -0.68813,0.418938 -0.740082,0.851328 -0.07266,0.604754 0.278502,0.827229 4.630209,2.93343 2.589857,1.25347 4.785831,2.28927 4.879941,2.30177 0.09411,0.0125 0.31327,-1.01906 0.487022,-2.29237 z m 39.42219,-0.661459 c -0.004,-2.226142 -0.234856,-3.054889 -0.760114,-2.730261 -0.180341,0.111456 -0.294165,1.097159 -0.294165,2.547438 0,2.189242 0.03946,2.365632 0.529167,2.365632 0.486732,0 0.528842,-0.17503 0.525112,-2.182809 z m 1.85209,0 c -0.004,-2.319176 -0.30612,-3.310173 -0.78565,-2.579688 -0.14329,0.218282 -0.26236,1.379141 -0.26458,2.579688 -0.004,2.007779 0.0384,2.182809 0.52511,2.182809 0.48673,0 0.52884,-0.17503 0.52512,-2.182809 z m 14.7645,-0.243181 c -0.0517,-1.648903 -0.18202,-2.4611 -0.40681,-2.53559 -0.2492,-0.08258 -0.33073,0.515458 -0.33073,2.425993 0,2.104977 0.0691,2.535587 0.40681,2.535587 0.34197,0 0.39468,-0.38664 0.33073,-2.42599 z m 1.9083,0.06036 c 0,-2.181673 -0.2492,-3.029035 -0.74521,-2.53393 -0.0995,0.09928 -0.22245,1.242295 -0.2733,2.540036 -0.0882,2.249774 -0.0666,2.359524 0.46302,2.359524 0.52284,0 0.55549,-0.13902 0.55549,-2.36563 z m 11.1125,1.83647 c 0,-0.41158 -0.17639,-0.52917 -0.79375,-0.52917 -0.61736,0 -0.79375,0.11759 -0.79375,0.52917 0,0.41157 0.17639,0.52916 0.79375,0.52916 0.61736,0 0.79375,-0.11759 0.79375,-0.52916 z m 2.64583,0 c 0,-0.41158 -0.17639,-0.52917 -0.79375,-0.52917 -0.61736,0 -0.79375,0.11759 -0.79375,0.52917 0,0.41157 0.17639,0.52916 0.79375,0.52916 0.61736,0 0.79375,-0.11759 0.79375,-0.52916 z m 2.64584,0 c 0,-0.41158 -0.17639,-0.52917 -0.79375,-0.52917 -0.61737,0 -0.79375,0.11759 -0.79375,0.52917 0,0.41157 0.17638,0.52916 0.79375,0.52916 0.61736,0 0.79375,-0.11759 0.79375,-0.52916 z m -5.29167,-2.116668 c 0,-0.411574 -0.17639,-0.529167 -0.79375,-0.529167 -0.61736,0 -0.79375,0.117593 -0.79375,0.529167 0,0.411574 0.17639,0.529167 0.79375,0.529167 0.61736,0 0.79375,-0.117593 0.79375,-0.529167 z m 2.64583,0 c 0,-0.411574 -0.17639,-0.529167 -0.79375,-0.529167 -0.61736,0 -0.79375,0.117593 -0.79375,0.529167 0,0.411574 0.17639,0.529167 0.79375,0.529167 0.61736,0 0.79375,-0.117593 0.79375,-0.529167 z m 2.64584,0 c 0,-0.411574 -0.17639,-0.529167 -0.79375,-0.529167 -0.48507,0 -0.79375,0.137192 -0.79375,0.352778 0,0.509853 0.26909,0.705556 0.97013,0.705556 0.44098,0 0.61737,-0.151191 0.61737,-0.529167 z m 0,-2.248958 c 0,-0.558565 -0.12348,-0.661459 -0.79375,-0.661459 -0.60783,0 -0.79375,0.119638 -0.79375,0.510765 0,0.461577 0.16524,0.553904 1.38906,0.776121 0.10914,0.01982 0.19844,-0.261625 0.19844,-0.625427 z m -5.29167,-0.132292 c 0,-0.411574 -0.17639,-0.529167 -0.79375,-0.529167 -0.61736,0 -0.79375,0.117593 -0.79375,0.529167 0,0.411574 0.17639,0.529167 0.79375,0.529167 0.61736,0 0.79375,-0.117593 0.79375,-0.529167 z m 2.64583,0 c 0,-0.411574 -0.17639,-0.529167 -0.79375,-0.529167 -0.61736,0 -0.79375,0.117593 -0.79375,0.529167 0,0.411574 0.17639,0.529167 0.79375,0.529167 0.61736,0 0.79375,-0.117593 0.79375,-0.529167 z m -2.64583,-2.116666 c 0,-0.411575 -0.17639,-0.529167 -0.79375,-0.529167 -0.61736,0 -0.79375,0.117592 -0.79375,0.529167 0,0.411574 0.17639,0.529166 0.79375,0.529166 0.61736,0 0.79375,-0.117592 0.79375,-0.529166 z m 2.64583,0 c 0,-0.411575 -0.17639,-0.529167 -0.79375,-0.529167 -0.61736,0 -0.79375,0.117592 -0.79375,0.529167 0,0.411574 0.17639,0.529166 0.79375,0.529166 0.61736,0 0.79375,-0.117592 0.79375,-0.529166 z m 2.64584,0 c 0,-0.411575 -0.17639,-0.529167 -0.79375,-0.529167 -0.61737,0 -0.79375,0.117592 -0.79375,0.529167 0,0.411574 0.17638,0.529166 0.79375,0.529166 0.61736,0 0.79375,-0.117592 0.79375,-0.529166 z m -77.522923,-2.224888 4.365625,-1.374095 0.307054,-1.838529 c 0.16888,-1.011192 0.391387,-2.662752 0.49446,-3.670135 l 0.187406,-1.831606 -1.973573,1.699314 c -1.085465,0.934622 -3.897581,3.352244 -6.249148,5.372492 -2.351566,2.020249 -4.275574,3.710472 -4.275574,3.756052 0,0.104229 1.629297,-0.377801 7.14375,-2.113493 z m 108.743753,1.312541 c 0,-0.06523 -1.39899,-1.301368 -3.10886,-2.746978 -1.70986,-1.44561 -4.77572,-4.072049 -6.81302,-5.836531 l -3.70416,-3.20815 -0.0759,2.69102 c -0.0417,1.480061 0.0225,2.789407 0.14276,2.909658 0.12025,0.120251 3.01189,1.467044 6.42588,2.992873 3.41398,1.52583 6.38583,2.88929 6.60411,3.029911 0.47393,0.305313 0.52917,0.322871 0.52917,0.168197 z m 1.49875,-1.836451 c -0.50444,-0.769874 -10.49709,-19.058097 -13.02713,-23.841827 -1.00053,-1.891771 -1.84507,-3.26099 -1.87676,-3.042708 -0.0317,0.218281 -0.10413,3.515142 -0.161,7.326357 l -0.10339,6.929483 4.78425,4.097613 c 2.63133,2.253687 6.09392,5.232256 7.69465,6.619044 1.60073,1.386787 2.95388,2.526547 3.007,2.5328 0.0531,0.0063 -0.0898,-0.27309 -0.31762,-0.620762 z M 57.072632,85.668174 c 2.619375,-2.216184 5.087439,-4.284027 5.484586,-4.595206 0.706421,-0.553506 0.745429,-0.737521 1.798101,-8.482346 0.591808,-4.354111 1.040776,-8.11919 0.997706,-8.366841 -0.04307,-0.247652 -2.042841,3.130199 -4.443935,7.506334 -2.401094,4.376136 -5.883672,10.701623 -7.739062,14.056638 -1.855391,3.355016 -3.373438,6.155597 -3.373438,6.223514 0,0.06792 0.565547,-0.424648 1.256771,-1.09459 0.691224,-0.669942 3.399896,-3.031318 6.019271,-5.247503 z m 10.847917,3.355618 c 1.600729,-0.493925 4.619913,-1.414516 6.709297,-2.045758 2.474084,-0.747466 3.841788,-1.290767 3.921919,-1.557925 0.06767,-0.225618 0.280616,-0.77536 0.47321,-1.221651 0.327336,-0.758521 0.290593,-0.905181 -0.563438,-2.248958 -0.502486,-0.790637 -1.704446,-2.840165 -2.671023,-4.554507 -1.071975,-1.901278 -1.884734,-3.068128 -2.083855,-2.991718 -0.179543,0.0689 -2.15476,1.681247 -4.389371,3.583 l -4.062929,3.457732 -0.477636,3.833554 c -0.2627,2.108455 -0.543442,4.085195 -0.623871,4.392756 -0.118934,0.454803 -0.05256,0.530481 0.355523,0.405361 0.275966,-0.08461 1.811445,-0.557961 3.412174,-1.051886 z M 149.09548,78.818901 c -1.45115,-1.32913 -7.26659,-6.324525 -8.32697,-7.152771 l -0.70621,-0.55161 -2.94075,2.566405 c -2.08111,1.816198 -2.89397,2.686995 -2.78073,2.978937 0.088,0.226894 0.22612,0.964939 0.30691,1.640101 l 0.1469,1.227567 3.47234,1.497522 c 1.90978,0.823638 5.37733,2.356717 7.70566,3.406843 l 4.23334,1.909321 0.0801,-3.179202 0.0801,-3.179202 z m -62.18871,0.965474 c 3.536581,-4.702237 7.687856,-10.786514 7.492726,-10.981644 -0.09797,-0.09796 -2.395562,-0.865152 -5.105769,-1.704859 l -4.927651,-1.52674 -3.822101,3.104798 c -2.102156,1.707639 -4.075993,3.308477 -4.386306,3.557416 l -0.564203,0.452617 0.730986,1.399466 c 0.402042,0.769707 1.5944,2.879082 2.649684,4.687502 l 1.918698,3.288035 1.372625,0.0199 c 0.754943,0.01094 1.521163,0.168438 1.702711,0.349986 0.181548,0.181548 0.413297,0.330087 0.514999,0.330087 0.101701,0 1.192321,-1.339453 2.423601,-2.976562 z m 7.075238,-0.129525 c 2.983177,-1.157881 7.708972,-2.986518 10.501762,-4.063638 2.79279,-1.07712 4.99544,-2.037833 4.89479,-2.134919 -0.20424,-0.196996 -12.029749,-3.924522 -12.450478,-3.924522 -0.146908,0 -1.515407,1.815703 -3.041108,4.034895 -1.525702,2.219193 -3.51496,5.036528 -4.420574,6.260744 -0.905615,1.224217 -1.480472,2.159885 -1.277462,2.079263 0.203011,-0.08062 2.809892,-1.093943 5.79307,-2.251823 z M 69.37355,75.254001 c 1.529183,-1.291158 2.942054,-2.498929 3.139714,-2.683935 0.299482,-0.280309 -0.0092,-1.04588 -1.852083,-4.593151 -1.568813,-3.019756 -2.346019,-4.258113 -2.674486,-4.261377 -0.316339,-0.0031 -0.463021,0.20093 -0.463021,0.64418 0,0.516158 -1.027706,8.421433 -1.698469,13.064892 -0.149166,1.032619 -0.498453,1.246287 3.548345,-2.170609 z m 81.15116,-4.400952 0.0542,-6.351274 -0.94604,-0.395281 -0.94605,-0.395281 -2.65556,2.314966 c -1.46056,1.273232 -3.02374,2.637799 -3.47375,3.032371 l -0.81818,0.717405 0.83783,0.673565 c 1.05452,0.847773 4.83681,4.094646 6.53297,5.608182 0.70697,0.630842 1.30228,1.146903 1.32292,1.146803 0.0206,-1.01e-4 0.0619,-2.858256 0.0917,-6.351456 z m -24.46038,4.923278 c 0.0568,-0.339612 -3.05721,-4.625488 -3.37503,-4.645063 -0.14552,-0.009 -1.6338,0.485544 -3.30729,1.098905 -3.03635,1.112869 -3.04077,1.115754 -2.11667,1.380142 0.50932,0.145718 2.53339,0.765485 4.49792,1.37726 3.57599,1.1136 4.22673,1.232937 4.30107,0.788756 z m 8.6804,-2.738827 c 0.94393,-0.836745 2.18503,-1.90681 2.758,-2.377922 0.62155,-0.511049 0.93904,-0.944741 0.78709,-1.075157 -0.79576,-0.682987 -2.95128,-2.373673 -3.24582,-2.545858 -0.1995,-0.11663 -2.40611,0.506743 -5.22617,1.476403 -3.62228,1.245502 -4.84512,1.772962 -4.74222,2.045511 0.0763,0.201987 0.69708,1.127785 1.37959,2.057329 0.88089,1.199709 1.35904,1.641239 1.64794,1.52175 0.96108,-0.397494 2.57026,-0.409751 3.45123,-0.02629 0.50848,0.221329 1.04817,0.41213 1.19931,0.424001 0.15115,0.01187 1.04711,-0.663027 1.99105,-1.499771 z m -17.46147,-2.304417 c 2.20971,-0.794487 4.06853,-1.495401 4.13072,-1.557588 0.0622,-0.06219 -0.49533,-1.045032 -1.23892,-2.1841 -0.74359,-1.139068 -1.90367,-3.040935 -2.57795,-4.226371 l -1.22597,-2.155338 -6.99603,-0.191065 c -5.67642,-0.155027 -7.0579,-0.124552 -7.32406,0.161563 -0.41732,0.448623 -4.14661,6.878726 -4.044358,6.973357 0.17263,0.159764 14.399198,4.578434 14.811388,4.600311 0.24614,0.01306 2.25547,-0.626283 4.46518,-1.420769 z M 78.437736,67.741748 c 1.855391,-1.510165 3.373438,-2.789563 3.373438,-2.843105 0,-0.05354 -0.982266,-0.401209 -2.182813,-0.772592 -1.200546,-0.371383 -3.636858,-1.138417 -5.414025,-1.70452 l -3.231214,-1.029278 -0.417201,0.63673 c -0.401996,0.613522 -0.337675,0.785298 1.76474,4.712913 1.258734,2.351498 2.298657,4.006248 2.45779,3.910896 0.151716,-0.09091 1.793895,-1.400879 3.649285,-2.911044 z m 49.363734,-0.723519 c 2.19848,-0.800365 4.11349,-1.455208 4.25557,-1.455208 0.82415,0 0.22735,-0.699375 -2.33787,-2.739727 l -2.87576,-2.287357 h -4.10919 -4.10919 l 2.42901,3.967858 c 1.33595,2.182322 2.50127,3.968259 2.5896,3.96875 0.0883,4.91e-4 1.95934,-0.653952 4.15783,-1.454316 z m 15.90471,-1.689139 c 1.75587,-1.511109 3.1925,-2.77492 3.1925,-2.808469 0,-0.03355 -1.37285,0.456347 -3.05076,1.088656 -1.67792,0.632308 -3.88994,1.404547 -4.91562,1.716085 -1.02567,0.311538 -1.76618,0.662704 -1.64559,0.780369 0.85582,0.835054 2.65556,2.094127 2.91374,2.038419 0.17228,-0.03717 1.74986,-1.30395 3.50573,-2.81506 z m -45.842756,-1.76008 1.897041,-3.297656 h -4.347 -4.347001 l -2.253603,1.7655 c -1.239482,0.971025 -2.161063,1.855325 -2.047957,1.96511 0.204115,0.198125 8.42986,2.821111 8.936895,2.849755 0.145521,0.0082 1.118252,-1.468999 2.161625,-3.282709 z m 42.420666,-0.910048 5.15938,-1.837135 -2.40485,-0.01065 c -1.32267,-0.0059 -4.77548,-0.08683 -7.67292,-0.17993 l -5.26807,-0.169276 2.51355,2.020331 c 1.38244,1.111183 2.51354,2.018862 2.51354,2.017065 0,-0.0018 2.32172,-0.829978 5.15937,-1.840402 z M 85.772991,61.768264 87.579513,60.354758 80.809762,60.18579 c -3.723363,-0.09293 -6.799069,-0.13965 -6.834902,-0.103817 -0.08467,0.08467 9.181955,3.038422 9.641566,3.073263 0.192523,0.01459 1.162978,-0.609543 2.156565,-1.386972 z m 59.516139,-3.191942 c -0.17791,-0.173527 -10.15451,-3.89209 -21.37912,-7.9686 -5.74322,-2.085801 -10.19693,-3.57469 -9.92187,-3.316913 0.61053,0.572181 7.86417,6.639822 10.95012,9.159727 l 2.24896,1.836443 4.23333,0.14517 c 5.6019,0.192101 14.0073,0.279481 13.86858,0.144173 z m -30.40504,-0.216778 c 0,-0.06724 -1.07109,-2.135138 -2.38021,-4.595327 -1.30911,-2.460189 -2.38068,-4.552446 -2.38125,-4.64946 -5.7e-4,-0.09701 -0.50705,-0.175173 -1.12552,-0.173687 l -1.12448,0.0027 -2.24896,4.489145 c -1.23692,2.469031 -2.27848,4.571252 -2.31456,4.671604 -0.0361,0.100351 2.55352,0.226292 5.75468,0.279868 3.20117,0.05358 5.8203,0.0424 5.8203,-0.02485 z m 8.59161,-0.428595 c -0.52646,-0.492667 -9.27323,-7.81298 -10.79346,-9.033221 -0.80979,-0.65 -0.80426,-0.629087 0.4551,1.719792 0.70118,1.307786 1.9442,3.598183 2.76226,5.089772 l 1.4874,2.711979 h 3.30526 c 3.2252,0 3.29262,-0.01183 2.78344,-0.488322 z M 94.139401,55.200465 c 3.280513,-2.634192 9.330229,-7.588298 10.028759,-8.212539 0.14536,-0.129896 -0.56902,0.07778 -1.5875,0.46151 -1.01848,0.383727 -3.340059,1.211454 -5.159069,1.839394 -1.81901,0.62794 -7.057761,2.475009 -11.641667,4.104597 -4.583906,1.629589 -9.286875,3.296901 -10.451042,3.70514 l -2.116666,0.742251 3.175,0.10004 c 1.74625,0.05502 5.627077,0.125644 8.62406,0.156935 l 5.44906,0.05689 z m 9.316169,-2.006715 c 1.35544,-2.655755 2.40083,-4.828646 2.32307,-4.828646 -0.0778,0 -0.94811,0.689096 -1.93411,1.531324 -0.986,0.842228 -3.45961,2.882375 -5.496897,4.533659 -2.037292,1.651285 -3.882168,3.168504 -4.099724,3.371599 -0.339597,0.317024 0.109402,0.358756 3.173829,0.294987 l 3.569382,-0.07428 z"
       id="path1"
       sodipodi:nodetypes="cscccssscsscsscssscssscssscssssssssssscsssscssscccsssssscsssssscssssscsscscscssssssccssscsscccssssssscsssscssssssssssscssssssssssssscsssssssssssssssscssssssssssssscscssssscsscsscssscssscscsccsssssscssccccscssscsscssssssssssscccscsssssssssscssscsscssscccssscccsssccccssssccscssscssssssccssssssscsssscccssccsssscccsssscccssssssscccssccsscccssscssssscssssssssssssssssssscssssssscssssssssssssssssscccssscccssssssssssssssssscsccccscccsssssssssssssssssssssssscsssccscscssssssscssssssssssssssssssssssssssssssssssssssssssssssssssssssssssssssscsscsssssssccssssssssscsscsssssssssssssssssscsssscscssscssccccssscsscsscsssssssssssssssscsssccccsscsssccccssscssssscsssssssssscssssssssscssssssscccssssssssssscccsssscccscssscscsssssssscsssssscssssssssscsssssssscsscssssssscs" /><path
       d="m 63.198294,194.97617 c -1.4135,-0.22784 -2.7956,-0.7982 -3.09051,-1.27537 -0.18841,-0.30486 0.60216,-1.94021 0.86945,-1.79851 1.46044,0.77425 2.54409,1.0793 3.9125,1.10138 1.7969,0.029 2.48812,-0.33861 2.48812,-1.32319 0,-0.82487 -0.79215,-1.302 -3.00764,-1.81155 -2.15781,-0.4963 -3.11714,-1.01675 -3.70337,-2.00915 -0.98212,-1.6626 -0.19251,-3.77352 1.73699,-4.6436 1.46364,-0.66001 4.14571,-0.67172 5.82059,-0.0254 1.20317,0.46427 1.23368,0.50284 0.94194,1.19062 -0.48456,1.14235 -0.63216,1.20436 -1.77658,0.74645 -2.63194,-1.05309 -5.43167,-0.0383 -4.53203,1.64269 0.19091,0.35672 0.97796,0.6822 2.64672,1.09453 3.17214,0.78381 4.38693,1.76061 4.38693,3.52748 0,2.72749 -2.77774,4.21475 -6.69311,3.58364 z m 13.11,0.003 c -3.68721,-0.54567 -6.01093,-4.29649 -4.91921,-7.94033 0.39865,-1.33056 1.84417,-3.00398 3.2271,-3.73585 1.53359,-0.81161 4.61677,-0.81921 6.12313,-0.0151 2.27753,1.21577 3.42987,3.12069 3.41211,5.6405 -0.0294,4.16413 -3.33892,6.71737 -7.84313,6.05079 z m 3.46416,-2.50125 c 1.17704,-0.7026 1.72592,-1.68466 1.84252,-3.29666 0.12892,-1.78224 -0.37428,-2.94662 -1.59394,-3.68834 -1.33939,-0.81453 -2.64629,-0.91434 -4.01937,-0.30696 -1.70763,0.75537 -2.32745,1.84226 -2.21329,3.88112 0.0953,1.70195 0.59609,2.65281 1.79157,3.40164 0.87327,0.547 3.28269,0.55229 4.19251,0.009 z m 23.627566,2.50194 c -1.59002,-0.29318 -3.36466,-1.39301 -4.141276,-2.56656 -1.22607,-1.85273 -1.33663,-4.58408 -0.26912,-6.64844 1.421376,-2.74864 5.803976,-3.95664 8.803286,-2.4265 1.32961,0.67831 2.8242,2.34213 3.24252,3.60964 0.3992,1.20961 0.21745,3.70026 -0.35012,4.79783 -1.26427,2.44482 -4.28735,3.7868 -7.28529,3.23403 z m 3.39303,-2.47561 c 0.41787,-0.21609 1.03505,-0.7795 1.37152,-1.25203 0.83119,-1.1673 0.86175,-3.54897 0.0594,-4.62545 -1.82011,-2.44179 -5.77037,-2.33304 -7.04513,0.19394 -0.55777,1.10568 -0.60056,2.92873 -0.0917,3.90675 0.4098,0.78762 1.39249,1.75726 2.00952,1.98281 0.80666,0.29488 2.95988,0.17487 3.69644,-0.20602 z m 11.02858,2.47939 c -3.535,-0.54545 -5.75469,-3.94154 -4.94728,-7.56927 0.2754,-1.23735 0.57369,-1.76263 1.5651,-2.75612 1.23716,-1.23974 3.17472,-2.07987 4.79674,-2.07987 1.15926,0 3.38484,0.77188 4.16285,1.44378 l 0.73194,0.6321 -0.77516,0.81211 c -0.68771,0.7205 -0.82312,0.76871 -1.20031,0.42736 -0.82504,-0.74666 -2.43601,-1.24897 -3.41597,-1.06513 -2.39618,0.44953 -3.46954,1.7409 -3.47111,4.17617 -9.1e-4,1.41267 0.0783,1.6166 1.0201,2.62626 0.94313,1.01108 1.14547,1.10365 2.6504,1.21251 1.42993,0.10343 1.75883,0.0322 2.68746,-0.58239 l 1.05814,-0.70024 0.69461,0.64408 c 0.38203,0.35425 0.63209,0.807 0.55568,1.00612 -0.21343,0.55618 -2.58752,1.72258 -3.77259,1.85348 -0.58208,0.0643 -1.63535,0.0279 -2.3406,-0.081 z m -31.393776,-6.08063 v -6.11079 l 3.63802,0.0915 c 3.29599,0.0829 3.73447,0.15147 4.66383,0.72918 1.36536,0.84875 2.13624,2.53908 1.89416,4.15339 -0.18528,1.23556 -1.14555,2.6126 -2.01411,2.88827 -0.4857,0.15415 -0.43383,0.29629 0.6755,1.85087 1.76987,2.48025 1.77796,2.55618 0.26191,2.4581 -1.24259,-0.0804 -1.29269,-0.11821 -2.47412,-1.86798 l -1.20585,-1.78594 h -1.52904 -1.52905 v 1.85208 1.85209 h -1.19062 -1.19063 z m 5.60698,0.38722 c 1.38875,-0.22962 2.06594,-0.9524 2.06594,-2.20504 0,-1.57719 -0.86245,-2.12556 -3.34297,-2.12556 h -1.9487 v 2.24896 2.24896 l 1.12448,-0.003 c 0.61847,-0.002 1.56403,-0.0756 2.10125,-0.1644 z m 32.304896,5.40874 c 0.0799,-0.19065 1.17662,-2.60882 2.43717,-5.37372 1.26054,-2.76489 2.41493,-5.36025 2.5653,-5.76746 0.25557,-0.69207 0.35933,-0.73523 1.59,-0.66146 l 1.31658,0.0789 2.1786,4.7625 c 1.19823,2.61938 2.43759,5.29088 2.75412,5.93668 0.31654,0.6458 0.57553,1.21134 0.57553,1.25677 0,0.0454 -0.57051,0.0826 -1.2678,0.0826 h -1.2678 l -0.7137,-1.45521 -0.71371,-1.45521 h -2.90974 -2.90974 l -0.39757,0.99219 c -0.67529,1.68526 -0.78431,1.78139 -2.11844,1.86798 -0.96179,0.0624 -1.22933,-8.4e-4 -1.1188,-0.26458 z m 8.58283,-4.7784 c -0.95528,-2.45704 -1.90226,-4.41205 -2.05611,-4.24477 -0.10616,0.11543 -0.61419,1.19214 -1.12895,2.39268 l -0.93593,2.18282 h 2.12478 c 1.59202,0 2.09255,-0.0829 1.99621,-0.33073 z m 6.09251,1.4552 c -0.0357,-2.00091 -0.055,-4.70958 -0.0429,-6.01927 l 0.022,-2.38125 3.54858,-0.0809 c 2.01123,-0.0459 3.96999,0.0422 4.52128,0.20321 1.29403,0.37805 2.3346,1.63567 2.3346,2.82159 0,1.05128 -0.65111,2.47947 -1.13127,2.48142 -0.17817,7.2e-4 -0.008,0.26861 0.37874,0.59531 0.949,0.80222 1.2817,1.54095 1.2817,2.84591 0,0.85035 -0.1678,1.26388 -0.74846,1.84454 -1.06523,1.06523 -2.32786,1.32435 -6.46144,1.32603 l -3.63802,0.001 z m 8.04768,1.08348 c 0.5789,-0.52389 0.62371,-1.38621 0.10868,-2.09124 -0.31957,-0.43745 -0.77062,-0.52707 -3.04271,-0.60453 l -2.66753,-0.0909 v 1.6123 1.61229 h 2.55886 c 2.00974,0 2.66268,-0.094 3.0427,-0.43788 z m -1.01121,-4.83863 c 0.72675,-0.27631 1.08734,-1.0678 0.84063,-1.84513 -0.22347,-0.70408 -1.48391,-1.08044 -3.61838,-1.08044 h -1.8126 v 1.5875 1.5875 h 1.96715 c 1.08194,0 2.26237,-0.11225 2.6232,-0.24943 z m 4.48676,7.07835 c 0.0825,-0.19065 1.31842,-2.94021 2.74639,-6.11014 l 2.59629,-5.76351 1.29554,0.075 1.29553,0.075 2.73936,5.93256 c 1.50665,3.26291 2.73937,5.97158 2.73937,6.01927 0,0.0477 -0.58149,0.0867 -1.29219,0.0867 h -1.29219 l -0.59062,-1.45521 -0.59063,-1.45521 h -2.9663 -2.9663 l -0.64099,1.38906 c -0.63363,1.37312 -0.65582,1.39001 -1.93217,1.47111 -0.98604,0.0627 -1.25571,1.3e-4 -1.14109,-0.26458 z m 8.50062,-5.04299 c -0.44856,-1.44327 -1.80164,-4.17218 -1.97383,-3.98083 -0.10419,0.11578 -0.60848,1.19279 -1.12065,2.39333 l -0.93121,2.18282 h 2.10535 c 2.06176,0 2.10152,-0.0123 1.92034,-0.59532 z M 54.740774,178.3024 c -0.24775,-0.24775 -0.3275,-2.57294 -0.3275,-9.54814 0,-11.85352 -0.22955,-11.31103 4.78607,-11.31103 h 2.96878 l 0.95122,1.01529 c 0.64153,0.68474 1.59381,2.47219 2.9249,5.49011 3.64118,8.25544 4.77205,10.53491 5.0758,10.23116 0.2891,-0.28909 1.57065,-3.03404 4.05432,-8.68389 2.42405,-5.51421 3.37877,-7.27779 4.15802,-7.68075 0.48277,-0.24966 1.62506,-0.37192 3.47478,-0.37192 3.17454,0 3.92918,0.35344 4.40386,2.06256 0.40603,1.46197 0.36793,18.37635 -0.0423,18.78661 -0.19192,0.19192 -1.1226,0.3175 -2.35295,0.3175 -1.61198,0 -2.06885,-0.0871 -2.19604,-0.41852 -0.0883,-0.23018 -0.1606,-3.99057 -0.1606,-8.35642 0,-6.23121 -0.0711,-7.91482 -0.33073,-7.83053 -0.1819,0.0591 -1.87939,3.4604 -3.77219,7.55854 -2.03222,4.39999 -3.7411,7.7508 -4.1732,8.1829 -0.69611,0.69611 -0.85359,0.73174 -3.23418,0.73174 -2.43301,0 -2.5238,-0.022 -3.27236,-0.79375 -0.44017,-0.45379 -1.98705,-3.4001 -3.61171,-6.87917 -1.56299,-3.34698 -3.13775,-6.71049 -3.49948,-7.47448 -1.27314,-2.68894 -1.37503,-2.20616 -1.45186,6.87917 l -0.0699,8.26823 -1.98761,0.0761 c -1.31885,0.0505 -2.09779,-0.0341 -2.3151,-0.25135 z m 42.66729,0.0387 c -2.9412,-0.58602 -5.02347,-2.29326 -5.71956,-4.68944 -0.55778,-1.92013 -0.47132,-10.13496 0.12308,-11.6923 0.68357,-1.791 1.60655,-2.81431 3.27918,-3.63566 l 1.52355,-0.74814 h 8.731256 8.73125 v 1.98438 1.98437 l -7.9375,0.1323 c -8.483396,0.14139 -8.766836,0.18723 -9.372136,1.5157 -0.15491,0.34 -0.35694,1.08893 -0.44894,1.6643 l -0.16728,1.04611 8.830636,0.0698 8.83063,0.0697 0.08,1.54368 c 0.0472,0.91046 -0.0475,1.69732 -0.23084,1.91823 -0.25641,0.30896 -1.81734,0.37455 -8.91337,0.37455 h -8.602526 l 0.1699,1.23958 c 0.19249,1.40434 0.6869,2.28977 1.55567,2.78601 0.43288,0.24725 2.761136,0.37613 8.532816,0.47233 l 7.9375,0.13229 0.0794,1.67674 c 0.0477,1.00844 -0.0443,1.82573 -0.23083,2.05052 -0.25527,0.30759 -1.67501,0.36865 -8.01687,0.34479 -4.23867,-0.0159 -8.182916,-0.12388 -8.765006,-0.23985 z m 20.259796,-0.10494 c -0.18656,-0.22479 -0.27857,-1.04208 -0.23083,-2.05052 l 0.0794,-1.67674 8.81903,-0.13229 c 10.01887,-0.15029 9.56951,-0.038 9.56951,-2.39082 0,-2.05424 0.0394,-2.04293 -7.54062,-2.1616 -5.56422,-0.0871 -6.78207,-0.17703 -7.66931,-0.56632 -2.39729,-1.05184 -3.04816,-2.29001 -3.04197,-5.78683 0.005,-3.00541 0.55319,-4.20761 2.3849,-5.23327 l 1.18263,-0.66221 h 9.26041 9.26042 v 1.98438 1.98437 l -8.20208,0.1323 c -4.51115,0.0728 -8.35091,0.22861 -8.53282,0.34634 -0.20283,0.13128 -0.33073,0.81586 -0.33073,1.77032 0,0.95447 0.1279,1.63905 0.33073,1.77033 0.18191,0.11772 3.42636,0.27473 7.2099,0.34889 6.45602,0.12655 6.94697,0.17094 7.98136,0.72161 1.87686,0.99918 2.7299,2.76094 2.73279,5.64396 0.003,3.42457 -1.34373,5.47993 -3.95944,6.0409 -0.8329,0.17862 -4.76171,0.29098 -10.17492,0.29098 -7.27333,0 -8.87246,-0.0655 -9.12833,-0.37378 z m 27.05649,0.0534 c -0.25003,-0.38684 -0.46571,-19.30183 -0.23076,-20.23792 0.14419,-0.57451 0.27666,-0.60836 2.38099,-0.60836 1.29042,0 2.30158,0.11857 2.4024,0.28171 0.0958,0.15494 0.15685,2.00041 0.13575,4.10104 l -0.0384,3.81934 h 7.14901 7.14902 l 0.073,-4.0349 0.073,-4.0349 h 2.38125 2.38125 l 0.0693,10.30119 c 0.0543,8.06528 -0.003,10.34719 -0.26458,10.51314 -0.39102,0.24822 -3.67039,0.29376 -4.28099,0.0594 -0.35734,-0.13712 -0.41852,-0.77527 -0.41852,-4.36562 v -4.20503 h -7.13719 -7.1372 l -0.0727,4.29948 -0.0727,4.29948 -2.1608,0.0765 c -1.54337,0.0546 -2.2238,-0.021 -2.38125,-0.26459 z"
       style="fill:#ffffff;fill-opacity:1"
       id="path1-6" /><path
       style="fill:#f1faee;fill-opacity:1;stroke:none;stroke-width:0.183402"
       d="m 111.72575,119.15926 c -0.0394,-1.49141 -0.13145,-3.05594 -0.20451,-3.47674 -0.21086,-1.21449 -0.72412,-2.08145 -1.75667,-2.96727 l -0.51021,-0.43771 -0.73173,0.72685 c -1.4159,1.40644 -1.55376,1.88662 -1.63514,5.69515 l -0.0609,2.85096 -5.39124,-2.0641 -5.391237,-2.06411 0.0029,-0.71198 c 0.0016,-0.39159 0.01285,-2.45648 0.02497,-4.58865 l 0.02203,-3.87667 0.789208,-0.16959 0.789209,-0.16959 0.04615,-7.909311 c 0.04684,-8.026037 0.07314,-8.592646 0.425342,-9.162524 0.112747,-0.182425 0.22214,0.174261 0.236405,0.770818 0.0112,0.468482 0.08951,0.731989 0.217518,0.731989 0.300706,0 1.734715,-7.403405 1.877925,-9.695183 0.0564,-0.902419 0.11626,-1.228143 0.26654,-1.450046 l 0.19383,-0.286193 0.0315,0.273464 c 0.0173,0.150405 0.12311,0.337639 0.2351,0.416077 0.18359,0.128594 0.19185,0.178224 0.084,0.504896 -0.0763,0.231075 -0.0948,0.586601 -0.0512,0.981651 0.10123,0.916585 0.69008,4.077313 1.20805,6.484436 0.59428,2.7618 0.68014,2.923805 0.9793,1.8478 0.13308,-0.478664 0.19461,-0.585633 0.26476,-0.460279 0.25012,0.446932 0.45038,3.440996 0.55495,8.297145 0.039,1.81064 0.10761,3.16985 0.16001,3.16985 0.12411,0 2.74989,-2.39083 3.63206,-3.30707 1.08029,-1.12202 1.28704,-1.729899 0.6821,-2.005529 -0.32603,-0.148544 -0.27864,-0.337261 0.17728,-0.705997 0.35634,-0.288202 0.37974,-0.293316 0.62047,-0.135584 0.41947,0.274847 0.49941,0.527606 0.26222,0.829144 -0.58594,0.744896 -0.16373,1.318079 3.04002,4.127076 1.23902,1.08635 1.40005,1.19843 1.41813,0.9871 0.0112,-0.13113 0.0686,-2.08042 0.12756,-4.33176 0.11181,-4.271681 0.23835,-6.361562 0.41282,-6.8185 0.0969,-0.253881 0.11107,-0.259101 0.23707,-0.08754 0.0737,0.100342 0.16441,0.40355 0.20158,0.673793 0.0623,0.452819 0.19,0.683241 0.31142,0.561823 0.10087,-0.100875 0.35021,-1.192393 0.92828,-4.063756 0.88727,-4.407204 1.01605,-5.473698 0.7565,-6.264818 -0.0546,-0.166302 -0.0346,-0.224634 0.077,-0.224634 0.16713,0 0.27192,-0.204082 0.27192,-0.529541 V 80.91091 l 0.20483,0.20482 c 0.17077,0.170768 0.21988,0.402685 0.29543,1.394957 0.10347,1.359107 0.50524,3.798391 1.09428,6.643869 0.4857,2.346207 0.66541,2.982557 0.8423,2.982557 0.13249,0 0.25555,-0.48869 0.25769,-1.02334 0.002,-0.401209 0.17673,-0.335244 0.29714,0.111925 0.13937,0.517589 0.29833,4.477673 0.30108,7.500705 0.001,1.345307 0.0319,3.960627 0.0681,5.811807 l 0.0658,3.36579 0.55798,0.11192 c 0.30689,0.0616 0.65949,0.13561 0.78356,0.16456 l 0.22558,0.0526 -0.0259,4.84347 -0.0259,4.84348 -4.84214,1.78302 c -2.66317,0.98066 -5.0715,1.8696 -5.35183,1.97542 l -0.50971,0.19241 z m -10.14141,-4.08443 c -10e-4,-2.98263 -0.15294,-3.86871 -0.66333,-3.86871 -0.27525,0 -0.69527,0.49472 -0.82908,0.97652 -0.0575,0.20715 -0.103367,1.41952 -0.103678,2.74244 l -5.31e-4,2.37114 h 0.798699 0.7987 z m 17.0515,0.87358 c 0.0679,-3.103 -0.28818,-4.74229 -1.03015,-4.74229 -0.47501,0 -0.64423,1.02913 -0.645,3.92267 l -5.3e-4,2.17551 0.82366,-0.029 0.82366,-0.029 z m -8.38798,-7.09324 c 0.47259,-0.19746 0.77494,-0.48225 1.10147,-1.03746 0.32553,-0.55352 0.36179,-1.54757 0.0767,-2.10267 -0.59167,-1.15201 -1.96093,-1.70205 -2.99316,-1.20235 -0.78642,0.3807 -1.54931,1.45028 -1.55418,2.17898 -0.005,0.72333 0.63295,1.67752 1.38208,2.06771 0.55327,0.28818 1.42597,0.33024 1.98709,0.0958 z M 100.3228,101.472 c 0.22256,-0.22256 0.30027,-1.12604 0.23228,-2.700316 -0.073,-1.69016 -0.20171,-2.178389 -0.58599,-2.222774 -0.234926,-0.02713 -0.28136,0.01622 -0.374284,0.349433 -0.150583,0.539968 -0.247692,2.733694 -0.16165,3.651627 0.07509,0.80105 0.215143,1.07173 0.554539,1.07173 0.101975,0 0.252775,-0.0674 0.335105,-0.1497 z m 1.86132,0.0519 c 0.20557,-0.13004 0.22016,-4.046268 0.0172,-4.619538 -0.13962,-0.394389 -0.39316,-0.493436 -0.60615,-0.236797 -0.18875,0.227428 -0.32677,1.76956 -0.2922,3.26487 0.029,1.255275 0.0533,1.421465 0.22631,1.547765 0.22412,0.16364 0.44222,0.17819 0.65482,0.0437 z m 14.87583,2.4e-4 c 0.29423,-0.18567 0.21055,-4.214527 -0.0996,-4.793992 -0.16375,-0.305978 -0.38386,-0.243862 -0.44042,0.124295 -0.21516,1.40061 -0.11597,4.506967 0.14927,4.674867 0.17646,0.1117 0.20614,0.1113 0.39072,-0.005 z m 1.85287,-0.0442 c 0.18068,-0.13216 0.19368,-0.27583 0.19193,-2.121551 -0.002,-2.043503 -0.10634,-2.780424 -0.41045,-2.897122 -0.42788,-0.16419 -0.61168,0.77013 -0.65824,3.345938 -0.0256,1.416955 -0.0133,1.540575 0.16615,1.672285 0.24562,0.18024 0.46464,0.18039 0.71061,5.3e-4 z"
       id="path3" /><path
       style="fill:#f1faee;fill-opacity:1;stroke:none;stroke-width:0.183402"
       d="m 92.250269,115.97629 -2.595783,-1.00659 0.02747,-3.41698 0.02747,-3.41697 -0.674942,-0.28685 c -0.829174,-0.35241 -1.383118,-0.36533 -2.150493,-0.0502 -0.315738,0.12968 -0.577374,0.24179 -0.581413,0.24914 -0.004,0.007 -0.04208,1.23822 -0.08454,2.73528 -0.04246,1.49705 -0.09728,2.742 -0.121829,2.76655 -0.04121,0.0412 -5.181437,-1.89457 -5.213718,-1.96345 -0.0079,-0.0169 0.0099,-1.693 0.03955,-3.72469 0.04523,-3.09787 0.07989,-3.75245 0.214777,-4.0562 0.08846,-0.19922 0.221587,-0.40038 0.295827,-0.44703 0.07424,-0.0466 0.790486,-0.11328 1.591658,-0.14807 0.801168,-0.0348 1.536961,-0.10818 1.635095,-0.16309 0.11504,-0.0644 0.258504,-0.4092 0.403861,-0.9707 0.309981,-1.19742 0.741642,-2.197744 0.88611,-2.05345 0.07456,0.0745 0.12181,1.04261 0.144037,2.95135 l 0.03308,2.84051 h 1.788961 1.788961 l 0.01,-2.72058 c 0.0055,-1.49632 0.04031,-2.82917 0.07743,-2.96189 l 0.06747,-0.241319 0.15675,0.241319 c 0.221805,0.34147 0.529153,1.21304 0.736419,2.08831 0.09752,0.41183 0.221603,0.80494 0.275737,0.87358 0.06601,0.0837 0.401652,0.1248 1.019319,0.1248 0.506493,0 1.33214,0.0292 1.834774,0.0649 l 0.913876,0.0649 0.0059,2.95522 c 0.0079,3.95138 0.155072,10.30023 0.243766,10.51793 0.04746,0.11651 0.02604,0.17242 -0.0643,0.16781 -0.07452,-0.004 -1.303583,-0.45989 -2.731261,-1.01351 z"
       id="path4" /><path
       style="fill:#f1faee;fill-opacity:1;stroke:none;stroke-width:0.183402"
       d="m 127.07954,113.82686 c 0.0346,-1.30413 0.092,-6.64961 0.12767,-11.87885 l 0.0648,-9.507703 0.3601,-0.06017 c 1.02856,-0.171862 1.20871,-0.333588 1.20871,-1.085088 v -0.455833 h 3.29465 3.29465 v 0.352638 c 0,0.466397 0.23578,1.012918 0.46511,1.078097 0.10111,0.02873 0.36855,0.08089 0.59431,0.115895 l 0.41047,0.06365 0.0631,0.667466 c 0.0347,0.367108 0.0671,3.520333 0.0721,7.007168 0.005,3.48683 0.0425,7.68751 0.0834,9.33483 0.0409,1.64732 0.0635,3.00996 0.0502,3.02809 -0.0366,0.0501 -9.96228,3.70948 -10.06366,3.71027 -0.0506,2.7e-4 -0.0615,-1.013 -0.0255,-2.37046 z m 3.11505,-3.46447 c 0.16626,-0.25375 0.11987,-0.63601 -0.0943,-0.7771 -0.18169,-0.1197 -1.20956,-0.0864 -1.33935,0.0434 -0.18424,0.18425 -0.14842,0.75214 0.0549,0.87058 0.0961,0.056 0.40954,0.10313 0.69656,0.1048 0.44546,0.003 0.54531,-0.0328 0.68218,-0.24167 z m 2.54645,0.14135 c 0.23224,-0.12429 0.26658,-0.70976 0.0521,-0.88779 -0.0847,-0.0703 -0.39273,-0.1051 -0.77173,-0.0871 -0.58195,0.0276 -0.63792,0.0506 -0.72413,0.29676 -0.0706,0.20158 -0.0522,0.32974 0.0752,0.52415 0.1443,0.22024 0.24118,0.25734 0.67206,0.25734 0.27689,0 0.59035,-0.0465 0.69656,-0.10336 z m 2.70615,-0.0619 c 0.20477,-0.18531 0.23332,-0.45195 0.0792,-0.73987 -0.0853,-0.15937 -0.21261,-0.19311 -0.72881,-0.19311 -0.35336,0 -0.67759,0.0521 -0.74527,0.1198 -0.18425,0.18425 -0.14843,0.75214 0.0549,0.87058 0.28514,0.16608 1.13315,0.12975 1.33994,-0.0574 z m -5.40177,-2.03471 c 0.13266,-0.071 0.19311,-0.20937 0.19311,-0.44202 0,-0.50193 -0.38271,-0.77068 -1.04258,-0.73211 l -0.5049,0.0295 -0.0302,0.52542 c -0.027,0.46927 -0.006,0.53528 0.19967,0.61766 0.31452,0.12619 0.95047,0.12702 1.18492,0.002 z m 2.79913,-0.1053 c 0.0504,-0.0774 0.08,-0.34295 0.0657,-0.59005 -0.0258,-0.44514 -0.0296,-0.44956 -0.41584,-0.48118 -0.77572,-0.0635 -1.15765,0.17833 -1.15765,0.73294 0,0.21374 0.064,0.37676 0.17471,0.44492 0.24015,0.14786 1.21829,0.0696 1.33309,-0.10663 z m 2.58555,0.009 c 0.21787,-0.21788 0.25871,-0.60167 0.0963,-0.90511 -0.18189,-0.33987 -1.41447,-0.21715 -1.5573,0.15505 -0.11367,0.29624 0.0636,0.65993 0.3912,0.80235 0.45543,0.19802 0.83818,0.17931 1.06978,-0.0523 z m -5.29141,-2.39611 c 0.2268,-0.22679 0.23696,-0.28831 0.10493,-0.63557 -0.1211,-0.3185 -0.82974,-0.45661 -1.26866,-0.24725 -0.35425,0.16898 -0.45858,0.74437 -0.17285,0.95329 0.28398,0.20766 1.10157,0.16455 1.33658,-0.0705 z m 2.70328,-0.009 c 0.14416,-0.22772 0.10525,-0.65461 -0.0731,-0.80246 -0.25862,-0.21435 -1.22346,-0.17125 -1.39423,0.0623 -0.19503,0.26672 -0.17095,0.5162 0.0734,0.76056 0.17765,0.17765 0.29775,0.20391 0.75797,0.16574 0.31895,-0.0265 0.58403,-0.10402 0.636,-0.18613 z m 2.58813,0.009 c 0.40031,-0.40031 0.18876,-0.858 -0.44018,-0.95231 -0.50637,-0.0759 -0.98522,0.1022 -1.04005,0.3869 -0.0577,0.29944 0.071,0.64759 0.25728,0.69628 0.46949,0.1227 1.02928,0.0628 1.22295,-0.13087 z m -5.27754,-2.07259 c 0.19963,-0.2054 0.19703,-0.61181 -0.005,-0.81405 -0.24345,-0.24346 -1.0552,-0.2912 -1.34523,-0.0791 -0.26731,0.19547 -0.18208,0.77738 0.13853,0.94588 0.25122,0.13203 1.06684,0.0966 1.21191,-0.0527 z m 2.63575,-0.0272 c 0.16188,-0.13435 0.19152,-0.56871 0.0537,-0.78648 -0.052,-0.0821 -0.31705,-0.15968 -0.636,-0.18613 -0.46022,-0.0382 -0.58032,-0.0119 -0.75797,0.16574 -0.3417,0.34171 -0.21949,0.82644 0.23818,0.94471 0.30226,0.0781 0.93769,-0.001 1.10213,-0.13784 z m 2.64179,-0.0966 c 0.41458,-0.41458 0.0753,-0.89854 -0.62987,-0.89854 -0.2366,0 -0.51411,0.0614 -0.61668,0.13637 -0.16391,0.11985 -0.1714,0.17281 -0.0619,0.43718 0.21364,0.51576 0.93781,0.69563 1.30845,0.32499 z m -5.26889,-2.27885 c 0.17895,-0.17895 0.13217,-0.72877 -0.0749,-0.88017 -0.21648,-0.1583 -0.82213,-0.17778 -1.18911,-0.0383 -0.21682,0.0824 -0.25609,0.15949 -0.25609,0.50241 0,0.32512 0.0443,0.42392 0.22464,0.50076 0.28128,0.11986 1.14751,0.0632 1.29544,-0.0847 z m 2.62313,-0.0174 c 0.16259,-0.13494 0.19749,-0.56897 0.0628,-0.78136 -0.1007,-0.15883 -0.79904,-0.26691 -1.15209,-0.17831 -0.50122,0.1258 -0.59226,0.86596 -0.13072,1.06279 0.28391,0.12108 1.02534,0.0584 1.21997,-0.10312 z m 2.71456,-0.0589 c 0.18843,-0.25769 0.16154,-0.5095 -0.0802,-0.75126 -0.17764,-0.17764 -0.29775,-0.2039 -0.75797,-0.16574 -0.60531,0.0502 -0.74376,0.1729 -0.70427,0.62415 0.0175,0.19952 0.10807,0.34038 0.2756,0.42845 0.33673,0.17701 1.09785,0.0955 1.26686,-0.1356 z m -5.39862,-2.014302 c 0.21418,-0.141097 0.26057,-0.523354 0.0943,-0.7771 -0.13508,-0.20617 -0.23962,-0.244706 -0.66379,-0.244706 -0.67872,0 -0.88967,0.126295 -0.88967,0.532651 0,0.179274 0.0539,0.379866 0.1198,0.445757 0.12979,0.129785 1.15766,0.163093 1.33935,0.0434 z m 2.71407,-0.0434 c 0.0659,-0.06589 0.1198,-0.266483 0.1198,-0.445757 0,-0.405878 -0.21094,-0.532651 -0.88631,-0.532651 -0.4036,0 -0.53008,0.04281 -0.65551,0.22189 -0.37229,0.531512 -0.0849,0.876324 0.73028,0.876324 0.31456,0 0.62585,-0.05391 0.69174,-0.119806 z m 2.71207,-0.07331 c 0.28181,-0.526563 -0.0182,-0.905102 -0.71739,-0.905102 -0.64504,0 -0.8765,0.131253 -0.8765,0.49704 0,0.40257 0.31951,0.601174 0.96716,0.601174 0.41527,0 0.54473,-0.03989 0.62673,-0.193112 z m 0.0485,-2.345143 c 0.0723,-0.286862 0.0596,-0.43966 -0.0532,-0.641363 -0.12605,-0.225417 -0.22506,-0.269256 -0.66595,-0.294859 -0.68624,-0.03985 -0.92321,0.09377 -0.92321,0.520551 0,0.183532 0.0689,0.390904 0.15318,0.460824 0.15967,0.132514 1.1207,0.396082 1.29447,0.355019 0.0549,-0.01298 0.14253,-0.193054 0.19471,-0.400172 z m -5.4183,0.05427 c 0.0373,-0.03403 0.0974,-0.181531 0.13345,-0.327776 0.0996,-0.403636 -0.23008,-0.682557 -0.80685,-0.682557 -0.63525,0 -0.84206,0.132724 -0.84206,0.540395 0,0.370949 0.12744,0.518832 0.49919,0.579258 0.29187,0.04744 0.91832,-0.01996 1.01627,-0.10932 z m 2.65277,-0.03823 c 0.0686,-0.05391 0.12479,-0.248178 0.12479,-0.43171 0,-0.414795 -0.20678,-0.540395 -0.88967,-0.540395 -0.43088,0 -0.52776,0.03709 -0.67206,0.257331 -0.25372,0.387226 -0.0873,0.773366 0.36581,0.848736 0.40427,0.06725 0.89271,0.0062 1.07113,-0.133962 z m -2.61477,-2.21519 c 0.16626,-0.253745 0.11987,-0.636003 -0.0943,-0.777102 -0.18169,-0.119693 -1.20956,-0.08639 -1.33935,0.0434 -0.0659,0.06589 -0.1198,0.25908 -0.1198,0.429302 0,0.440735 0.16112,0.549108 0.81637,0.549108 0.50196,0 0.59755,-0.03173 0.73709,-0.244706 z m 2.61976,0.124902 c 0.15476,-0.154757 0.15476,-0.703849 0,-0.858606 -0.0659,-0.06589 -0.37718,-0.119804 -0.69174,-0.119804 -0.63345,0 -0.8857,0.156387 -0.8857,0.549106 0,0.392722 0.25225,0.549108 0.8857,0.549108 0.31456,0 0.62585,-0.05391 0.69174,-0.119804 z m 2.65853,-0.03708 c 0.0863,-0.08629 0.15689,-0.262788 0.15689,-0.39222 0,-0.392719 -0.25225,-0.549106 -0.8857,-0.549106 -0.31456,0 -0.62584,0.05391 -0.69173,0.119804 -0.15476,0.154757 -0.15476,0.703849 0,0.858606 0.18065,0.18065 1.23021,0.153252 1.42054,-0.03708 z"
       id="path5" /><path
       style="fill:#f1faee;fill-opacity:1;stroke:none;stroke-width:0.183402"
       d="m 123.58684,117.18391 c 0.0343,-0.1716 0.0627,-3.14801 0.0632,-6.61425 l 7.9e-4,-6.30226 0.87281,-0.70376 c 0.48004,-0.38707 1.01744,-0.80473 1.19422,-0.92812 l 0.3214,-0.22436 0.0476,0.22925 c 0.0647,0.31164 0.1502,4.9598 0.18118,9.85187 l 0.0255,4.0317 -1.29719,0.48166 c -0.71346,0.26491 -1.33651,0.4836 -1.38456,0.48596 -0.048,0.002 -0.0593,-0.1361 -0.0249,-0.30769 z"
       id="path6" /><path
       style="fill:#f1faee;fill-opacity:1;stroke:none;stroke-width:0.183402"
       d="m 138.22556,105.77565 v -6.350385 h 0.67889 c 0.39492,0 0.72901,-0.05012 0.7987,-0.119807 0.0678,-0.06782 0.11981,-0.392693 0.11981,-0.748781 v -0.628978 h 1.50413 c 0.84591,0 1.58864,0.04523 1.69724,0.103349 0.14541,0.07782 0.19311,0.210443 0.19311,0.536884 0,0.540547 0.24177,0.808558 0.46008,0.51001 0.0764,-0.104517 0.13895,-0.319177 0.13895,-0.477026 0,-0.387093 0.16668,-0.673217 0.39218,-0.673217 0.21788,0 0.30668,0.188386 0.30668,0.65061 0,0.568098 0.14781,0.815002 0.5309,0.886872 0.23406,0.04391 0.37014,0.136561 0.42151,0.287016 0.0417,0.122197 0.0954,2.340343 0.11919,4.929213 l 0.0433,4.70704 -0.58241,0.2181 c -0.32033,0.11996 -1.93023,0.71451 -3.57755,1.32122 -1.64732,0.60672 -3.05129,1.12453 -3.11993,1.15069 -0.099,0.0377 -0.12479,-1.2637 -0.12479,-6.30281 z"
       id="path7" /><circle
       style="fill:#f1faee;fill-opacity:1;stroke:none;stroke-width:0.48604"
       id="path8"
       cx="46.309334"
       cy="96.700645"
       r="5.2080407" /><circle
       style="fill:#f1faee;fill-opacity:1;stroke:none;stroke-width:0.48604"
       id="path8-7"
       cx="56.200634"
       cy="137.35146"
       r="5.2080407" /><circle
       style="fill:#f1faee;fill-opacity:1;stroke:none;stroke-width:0.48604"
       id="path8-7-0"
       cx="162.0403"
       cy="135.42751"
       r="5.2080407" /><circle
       style="fill:#f1faee;fill-opacity:1;stroke:none;stroke-width:0.48604"
       id="path8-7-0-8"
       cx="170.83295"
       cy="96.781517"
       r="5.2080407" /><circle
       style="fill:#f1faee;fill-opacity:1;stroke:none;stroke-width:0.48604"
       id="path8-7-0-8-2"
       cx="151.52055"
       cy="59.769459"
       r="5.2080407" /><circle
       style="fill:#f1faee;fill-opacity:1;stroke:none;stroke-width:0.48604"
       id="path8-7-0-8-2-2"
       cx="66.735359"
       cy="59.13443"
       r="5.2080407" /><circle
       style="fill:#f1faee;fill-opacity:1;stroke:none;stroke-width:0.48604"
       id="path8-7-0-8-2-2-3"
       cx="109.0559"
       cy="44.641552"
       r="5.2080407" /><circle
       style="fill:#f1faee;fill-opacity:1;stroke:none;stroke-width:0.48604"
       id="path8-7-0-8-2-2-3-3"
       cx="130.14424"
       cy="78.025589"
       r="5.2080407" /><circle
       style="fill:#f1faee;fill-opacity:1;stroke:none;stroke-width:0.394086"
       id="path8-7-0-8-2-2-3-3-8"
       cx="81.821907"
       cy="85.477348"
       r="4.2227359" /><circle
       style="fill:#f1faee;fill-opacity:1;stroke:none;stroke-width:0.328405"
       id="path8-7-0-8-2-2-3-3-8-6"
       cx="74.082298"
       cy="102.59164"
       r="3.5189466" /><circle
       style="fill:#f1faee;fill-opacity:1;stroke:none;stroke-width:0.328405"
       id="path8-7-0-8-2-2-3-3-8-6-2"
       cx="84.333313"
       cy="130.69461"
       r="3.5189466" /><circle
       style="fill:#f1faee;fill-opacity:1;stroke:none;stroke-width:0.328405"
       id="path8-7-0-8-2-2-3-3-8-6-2-5"
       cx="151.30251"
       cy="108.48446"
       r="3.5189466" /></g></svg>
